<svg xmlns="http://www.w3.org/2000/svg" xmlns:xlink="http://www.w3.org/1999/xlink" width="30" height="30" viewBox="0 0 30 30" fill="none"><path d="M15 3C8.3726 3 3 8.3726 3 15C3 21.6274 8.3726 27 15 27C21.6274 27 27 21.6274 27 15C27 8.3726 21.6274 3 15 3ZM11.4 10.5C11.4 9.7875 11.9875 9.2 12.7 9.2C13.4125 9.2 14 9.7875 14 10.5C14 11.2125 13.4125 11.8 12.7 11.8C11.9875 11.8 11.4 11.2125 11.4 10.5ZM18.8 10.5C18.8 9.7875 19.3875 9.2 20.1 9.2C20.8125 9.2 21.4 9.7875 21.4 10.5C21.4 11.2125 20.8125 11.8 20.1 11.8C19.3875 11.8 18.8 11.2125 18.8 10.5ZM10.5 15.5C10.5 14.675 11.175 14 12 14C12.825 14 13.5 14.675 13.5 15.5V19.5C13.5 20.325 12.825 21 12 21C11.175 21 10.5 20.325 10.5 19.5V15.5ZM16.5 15.5C16.5 14.675 17.175 14 18 14C18.825 14 19.5 14.675 19.5 15.5V19.5C19.5 20.325 18.825 21 18 21C17.175 21 16.5 20.325 16.5 19.5V15.5Z" fill="#0A0A0A"></path></svg>

